<?xml version="1.0" encoding="UTF-8"?>
<svg width="23px" height="23px" viewBox="0 0 23 23" version="1.1" xmlns="http://www.w3.org/2000/svg" xmlns:xlink="http://www.w3.org/1999/xlink">
    <!-- Generator: Sketch 54.1 (76490) - https://sketchapp.com -->
    <title>-enterprise</title>
    <desc>Created with Sketch.</desc>
    <g id="UI-规范" stroke="none" stroke-width="1" fill="none" fill-rule="evenodd">
        <g id="icon" transform="translate(-254.000000, -520.000000)" fill="#FFFFFF">
            <path d="M274.061135,537.920838 L273.471991,537.920838 L273.471991,529.439529 C273.471991,528.926454 273.051808,528.508943 272.532306,528.508943 L268.326883,528.508943 L268.326883,522.929554 C268.326883,522.41566 267.906568,522 267.387092,522 L258.0911,522 C257.572524,522 257.152209,522.41566 257.152209,522.929554 L257.152209,537.920838 L256.938865,537.920838 C256.420315,537.920838 256,538.337424 256,538.851345 L256,540.069494 C256,540.582568 256.420315,541 256.938865,541 L274.061135,541 C274.579685,541 275,540.582568 275,540.069494 L275,538.851345 C275,538.337424 274.579685,537.920838 274.061135,537.920838 Z M265.634471,534.523485 C265.634471,535.037511 265.214262,535.454097 264.695607,535.454097 L260.783406,535.454097 C260.263904,535.454097 259.843589,535.037511 259.843589,534.523485 L259.843589,534.244227 C259.843589,533.731232 260.263904,533.314646 260.783406,533.314646 L264.695607,533.314646 C265.214262,533.314646 265.634471,533.731232 265.634471,534.244227 L265.634471,534.523485 Z M265.634471,530.462821 C265.634471,530.976716 265.214262,531.392375 264.695607,531.392375 L260.783406,531.392375 C260.263904,531.392375 259.843589,530.976716 259.843589,530.462821 L259.843589,530.183537 C259.843589,529.670462 260.263904,529.253031 260.783406,529.253031 L264.695607,529.253031 C265.214262,529.253031 265.634471,529.670462 265.634471,530.183537 L265.634471,530.462821 Z M265.634471,526.091345 C265.634471,526.605266 265.214262,527.020926 264.695607,527.020926 L260.783406,527.020926 C260.263904,527.020926 259.843589,526.605266 259.843589,526.091345 L259.843589,525.813013 C259.843589,525.298987 260.263904,524.882507 260.783406,524.882507 L264.695607,524.882507 C265.214262,524.882507 265.634471,525.298987 265.634471,525.813013 L265.634471,526.091345 Z M271.624944,536.182288 L269.120987,536.182288 C268.688611,536.182288 268.337939,535.835345 268.337939,535.407598 C268.337939,534.979031 268.688611,534.632088 269.120987,534.632088 L271.624944,534.632088 C272.05724,534.632088 272.407093,534.979031 272.407093,535.407598 C272.407913,535.835345 272.05724,536.182288 271.624944,536.182288 Z M271.624944,533.051179 L269.120987,533.051179 C268.688611,533.051179 268.337939,532.704236 268.337939,532.275563 C268.337939,531.847922 268.688611,531.500979 269.120987,531.500979 L271.624944,531.500979 C272.05724,531.500979 272.407093,531.847922 272.407093,532.275563 C272.407913,532.70413 272.05724,533.051179 271.624944,533.051179 Z" id="qiye-copy"></path>
        </g>
    </g>
</svg>