<?xml version="1.0" standalone="no"?><!DOCTYPE svg PUBLIC "-//W3C//DTD SVG 1.1//EN" "http://www.w3.org/Graphics/SVG/1.1/DTD/svg11.dtd"><svg t="1559707948841" class="icon" style="" viewBox="0 0 1024 1024" version="1.1" xmlns="http://www.w3.org/2000/svg" p-id="7856" xmlns:xlink="http://www.w3.org/1999/xlink" width="64" height="64"><defs><style type="text/css"></style></defs><path d="M332.8 421.12c0 48.768 85.6832 88.32 191.36 88.32s191.36-39.552 191.36-88.32c0-48.768-85.6832-88.32-191.36-88.32S332.8 372.352 332.8 421.12" fill="#ffffff" p-id="7857"></path><path d="M524.16 547.712c-82.432 0-150.144-23.552-179.584-55.936-5.888 8.832-11.776 17.664-11.776 29.44 0 47.104 85.376 88.32 191.36 88.32s191.36-41.216 191.36-88.32c0-11.776-5.888-20.608-11.776-32.384-29.44 35.328-97.152 58.88-179.584 58.88" fill="#ffffff" p-id="7858"></path><path d="M524.16 650.752c-82.432 0-150.144-23.552-179.584-55.936-5.888 11.776-11.776 20.608-11.776 32.384 0 47.104 85.376 88.32 191.36 88.32s191.36-38.272 191.36-88.32c0-11.776-5.888-20.608-11.776-32.384-29.44 35.328-97.152 55.936-179.584 55.936" fill="#ffffff" p-id="7859"></path></svg>