<?xml version="1.0" standalone="no"?><!DOCTYPE svg PUBLIC "-//W3C//DTD SVG 1.1//EN" "http://www.w3.org/Graphics/SVG/1.1/DTD/svg11.dtd"><svg t="1559708305741" class="icon" style="" viewBox="0 0 1024 1024" version="1.1" xmlns="http://www.w3.org/2000/svg" p-id="11804" xmlns:xlink="http://www.w3.org/1999/xlink" width="64" height="64"><defs><style type="text/css"></style></defs><path d="M750.336 414.0288c-12.672-5.888-213.2736-96.4096-213.2736-96.4096S515.072 307.2 505.984 307.2c-9.088 0-31.0528 10.4192-31.0528 10.4192s-200.6016 90.5472-213.2992 96.4096c-12.672 5.888 0 13.2608 0 13.2608s171.6224 77.8496 202.88 91.6736c25.5744 11.3664 31.232 11.1872 41.472 11.1872 10.24 0 15.9232 0.1792 41.472-11.1872 21.6064-9.6512 109.8752-49.6128 162.56-73.472v66.8416l-17.2544 17.2544 24.064 24.064 24.064-24.064-17.2544-17.2544v-73.1136l26.7008-12.1088s12.6976-7.3984 0-13.056z" fill="#ffffff" p-id="11805"></path><path d="M505.984 552.1152c-10.24 0-15.8976 0.2048-41.472-11.1616-15.5392-7.0144-65.7408-29.568-112.3328-50.7648v153.8048c46.592 21.0176 96.7936 43.776 112.3328 50.7648 25.5744 11.3664 31.232 11.1616 41.472 11.1616 10.24 0 15.9232 0.2048 41.472-11.1616 15.5648-7.0144 65.7408-29.5424 112.3584-50.7648v-153.8048c-46.592 21.0176-96.7936 43.7504-112.3328 50.7648-25.6 11.5456-31.2576 11.1616-41.472 11.1616" fill="#ffffff" p-id="11806"></path></svg>