<?xml version="1.0" standalone="no"?><!DOCTYPE svg PUBLIC "-//W3C//DTD SVG 1.1//EN" "http://www.w3.org/Graphics/SVG/1.1/DTD/svg11.dtd"><svg t="1559708382813" class="icon" style="" viewBox="0 0 1024 1024" version="1.1" xmlns="http://www.w3.org/2000/svg" p-id="12495" xmlns:xlink="http://www.w3.org/1999/xlink" width="64" height="64"><defs><style type="text/css"></style></defs><path d="M501.8368 415.488c0-16.512 2.9952-32.3328 8.448-46.9504a7.296 7.296 0 0 0-6.784-9.9072H322.816c-22.7584 0-41.216 18.4576-41.216 41.216v41.216h214.144c4.3776 0 7.7824-3.84 7.2192-8.1664a134.656 134.656 0 0 1-1.1264-17.408M619.5968 647.168H520.704l16.4864-57.728h98.8928l-16.4608 57.728z m16.4608-97.4336a134.1696 134.1696 0 0 1-115.968-66.6368 7.2192 7.2192 0 0 0-6.2464-3.5584H281.6v175.872c0 22.784 18.432 41.216 41.216 41.216H644.352c22.784 0 41.216-18.432 41.216-41.216v-104.8064a7.296 7.296 0 0 0-9.4976-6.912 134.1952 134.1952 0 0 1-39.9872 6.0416z" fill="#ffffff" p-id="12496"></path><path d="M691.7888 435.5328a57.0624 57.0624 0 0 0 3.84-20.9408c-0.0256-8.1152-1.5616-15.8208-4.608-22.8864a59.7248 59.7248 0 0 0-12.6208-18.7648 59.6736 59.6736 0 0 0-18.7648-12.6208 57.5744 57.5744 0 0 0-22.8864-4.5824 55.2192 55.2192 0 0 0-20.9408 3.9936l75.9808 75.8016z m-110.5664-40.2944c-2.0736 6.1184-3.1232 12.5952-3.1232 19.3536 0 8.1408 1.536 15.8208 4.5824 22.8864 3.072 7.168 7.3216 13.4656 12.6208 18.7904 5.2992 5.2992 11.6224 9.5488 18.7648 12.6208 7.0656 3.0208 14.6944 4.5824 22.6816 4.5824a56.96 56.96 0 0 0 19.4304-3.3024l-74.9568-74.9312z m54.8352 128.5376a107.1104 107.1104 0 0 1-42.1376-8.448 107.264 107.264 0 0 1-34.4576-23.1936 111.4624 111.4624 0 0 1-23.0912-34.304 105.6768 105.6768 0 0 1-8.6016-42.3424c0-14.7968 2.8928-28.9792 8.6016-42.112a108.8 108.8 0 0 1 57.4976-57.6A105.9328 105.9328 0 0 1 636.0576 307.2c14.976 0 29.2096 2.8928 42.3424 8.6016a108.9024 108.9024 0 0 1 57.4976 57.6512c5.632 13.1072 8.448 27.2384 8.448 42.0352 0 14.9504-2.816 29.184-8.448 42.2912-5.5808 13.056-13.3632 24.6016-23.1424 34.4064a108.9792 108.9792 0 0 1-34.4064 23.1424c-13.1072 5.632-27.3408 8.448-42.2912 8.448z" fill="#ffffff" p-id="12497"></path></svg>