<?xml version="1.0" standalone="no"?><!DOCTYPE svg PUBLIC "-//W3C//DTD SVG 1.1//EN" "http://www.w3.org/Graphics/SVG/1.1/DTD/svg11.dtd"><svg t="1559708086880" class="icon" style="" viewBox="0 0 1024 1024" version="1.1" xmlns="http://www.w3.org/2000/svg" p-id="9239" xmlns:xlink="http://www.w3.org/1999/xlink" width="64" height="64"><defs><style type="text/css"></style></defs><path d="M456.8576 597.12c1.4848 3.5328 3.2512 7.3472 5.2992 11.4432a153.6 153.6 0 0 0 7.04 13.2096c2.944 4.992 6.4512 10.4192 10.5728 16.2816 4.992 7.04 10.0352 14.464 15.1808 22.2464 5.12 7.7568 9.0112 14.8224 11.6736 21.12 2.6368 6.3232 3.4304 11.52 2.4064 15.616-1.024 4.096-5.1968 6.1696-12.544 6.1696h-25.088c-5.888 0-11.2896-1.1008-16.2816-3.3024a47.488 47.488 0 0 1-14.336-10.112 124.3904 124.3904 0 0 1-14.08-17.408c-4.8384-7.04-10.0352-15.3856-15.616-25.088-6.7328-11.136-11.4432-20.8896-14.08-29.2608a149.76 149.76 0 0 1-5.2736-20.9152 39.936 39.936 0 0 1 0-16.7168c2.3296 0.2816 5.12 0.8704 8.3456 1.7408l9.7024 2.2016c3.8144 0.896 8.192 1.792 13.184 2.6624 4.992 1.152 9.472 2.2784 13.44 3.3024 3.968 1.024 7.552 2.1248 10.7776 3.3024 3.5328 1.152 6.7584 2.3296 9.6768 3.5072z m158.464-269.824c12.6464-12.032 24.064-18.6624 34.3552-19.84a34.816 34.816 0 0 1 27.2896 8.1408c7.936 6.6048 14.6688 16.3072 20.2496 29.056 5.5808 12.8 10.1376 27.008 13.6448 42.7008 3.5328 15.7184 6.1696 32.1536 7.936 49.3056 1.7664 17.152 2.6368 33.536 2.6368 49.1008 0 15.5392-1.1008 31.104-3.3024 46.6432a277.8112 277.8112 0 0 1-9.6768 43.8016c-4.2752 13.6448-9.2416 25.6-14.976 35.8912-5.7088 10.24-12.1088 17.8944-19.1488 22.8864a28.928 28.928 0 0 1-22.656 5.2736c-8.0896-1.4592-16.512-7.168-25.344-17.152-8.4992-9.984-20.0192-18.2784-34.5344-24.8832a301.3632 301.3632 0 0 0-47.5392-16.7168c-17.152-4.5568-34.56-8.2176-52.1728-11.008-17.6128-2.816-33.7408-5.2992-48.4096-7.5008a671.8464 671.8464 0 0 1-36.7616-6.3744c-9.8304-2.048-15.36-4.5568-16.512-7.4752v-137.7792c1.1776-4.1216 5.7856-7.5008 13.8752-10.1376a250.624 250.624 0 0 1 30.7968-7.4752c12.4928-2.3552 26.5728-4.9152 42.2656-7.7056a435.968 435.968 0 0 0 47.9744-11.4432c16.3072-4.864 32.2304-11.008 47.7696-18.5088a169.728 169.728 0 0 0 42.24-28.8256zM307.2 440.832c0-7.6288 2.7136-14.08 8.1408-19.3792 5.4272-5.2736 11.9552-7.936 19.584-7.936h27.7504v123.6992h-27.7504c-7.6288 0-14.1568-2.6368-19.584-7.936A25.984 25.984 0 0 1 307.2 509.952v-69.12z" fill="#ffffff" p-id="9240"></path></svg>