<?xml version="1.0" standalone="no"?><!DOCTYPE svg PUBLIC "-//W3C//DTD SVG 1.1//EN" "http://www.w3.org/Graphics/SVG/1.1/DTD/svg11.dtd"><svg t="1559707398859" class="icon" style="" viewBox="0 0 1024 1024" version="1.1" xmlns="http://www.w3.org/2000/svg" p-id="3431" xmlns:xlink="http://www.w3.org/1999/xlink" width="64" height="64"><defs><style type="text/css"></style></defs><path d="M520.192 487.1168a25.8816 25.8816 0 0 1-11.136-2.9184L367.872 417.792a23.552 23.552 0 0 1 0-43.008l134.2208-63.488a42.496 42.496 0 0 1 36.224 0l134.2208 63.488a23.5264 23.5264 0 0 1 0 43.008l-141.184 66.432c-3.456 1.792-7.2448 2.7904-11.136 2.9184M483.7632 702.848a22.528 22.528 0 0 1-10.3936-2.6112l-127.5392-59.8528a24.2688 24.2688 0 0 1-13.0304-21.76v-152.5504a24.3712 24.3712 0 0 1 11.9808-20.8128 22.272 22.272 0 0 1 21.9648 0l127.3344 59.776c7.68 4.1472 12.5952 12.0576 12.9024 20.8128v152.7296a24.576 24.576 0 0 1-23.2192 24.2688M556.6464 702.848a22.9888 22.9888 0 0 1-11.3408-3.0208 24.576 24.576 0 0 1-11.8784-20.8384v-153.1392a24.4736 24.4736 0 0 1 12.4928-20.8128l128.1792-60.1856a22.0672 22.0672 0 0 1 21.5552 0.512c7.3728 4.352 11.904 12.2624 11.9808 20.8128v152.4224a24.2688 24.2688 0 0 1-12.5184 21.76l-128.0512 59.904a21.504 21.504 0 0 1-10.4192 2.5856" fill="#ffffff" p-id="3432"></path></svg>