<?xml version="1.0" standalone="no"?><!DOCTYPE svg PUBLIC "-//W3C//DTD SVG 1.1//EN" "http://www.w3.org/Graphics/SVG/1.1/DTD/svg11.dtd"><svg t="1559708207111" class="icon" style="" viewBox="0 0 1024 1024" version="1.1" xmlns="http://www.w3.org/2000/svg" p-id="10450" xmlns:xlink="http://www.w3.org/1999/xlink" width="64" height="64"><defs><style type="text/css"></style></defs><path d="M681.8048 534.656h-0.0256c0 14.848-12.032 26.8544-26.88 26.8544h-268.544c-14.848 0-26.88-12.032-26.88-26.88v-120.832c0-14.848 12.032-26.88 26.88-26.88h268.5696c14.848 0 26.88 12.032 26.88 26.88v120.832z m21.76-201.856H337.7408c-16.8704 0-30.5152 13.6448-30.5152 30.5152v259.1744c0 16.8448 13.6448 30.5152 30.5152 30.5152h140.7232c-24.1152 13.312-41.6512 30.4896-41.6512 30.4896-12.6208 0-22.8608 6.8352-22.8608 15.232 0 8.4224 10.24 15.2576 22.8608 15.2576h182.9376c12.6464 0 22.8864-6.8352 22.8864-15.2576 0-8.3968-10.24-15.232-22.8864-15.232 0 0-17.024-17.152-40.6528-30.4896h124.5184c16.8448 0 30.4896-13.6704 30.4896-30.5152V363.3152c0-16.8704-13.6448-30.5152-30.4896-30.5152z" fill="#ffffff" p-id="10451"></path></svg>