<?xml version="1.0" standalone="no"?><!DOCTYPE svg PUBLIC "-//W3C//DTD SVG 1.1//EN" "http://www.w3.org/Graphics/SVG/1.1/DTD/svg11.dtd"><svg t="1559708147374" class="icon" style="" viewBox="0 0 1024 1024" version="1.1" xmlns="http://www.w3.org/2000/svg" p-id="9793" xmlns:xlink="http://www.w3.org/1999/xlink" width="64" height="64"><defs><style type="text/css"></style></defs><path d="M466.0224 456.4992c52.6336 0 95.2832-39.168 95.2832-87.4752 0-48.256-42.6496-87.424-95.2832-87.424-52.6592 0-95.2832 39.168-95.2832 87.424 0 48.3072 42.624 87.4752 95.2832 87.4752M458.24 469.9648c-97.4592-3.2768-176.64 99.968-176.64 223.3088v0.2048c0 6.656 5.376 12.032 12.032 12.032h174.6944a12.1088 12.1088 0 0 0 10.88-17.3568c-0.256-0.5632-0.5888-1.1264-0.768-1.7152-21.7088-71.68-5.3248-152.064 74.2656-178.7904 4.4544-1.4848 4.7104-7.936 0.896-10.752-12.672-9.216-42.0096-25.1392-95.36-26.9312" fill="#ffffff" p-id="9794"></path><path d="M676.0448 646.5024a56.448 56.448 0 0 0 3.7888-20.6848c0-8.0384-1.536-15.6672-4.5312-22.656a59.0848 59.0848 0 0 0-12.4928-18.56 59.0336 59.0336 0 0 0-18.56-12.4672 56.9344 56.9344 0 0 0-22.6304-4.5312 54.6048 54.6048 0 0 0-20.6848 3.9424l75.1104 74.9568z m-109.312-39.8592c-2.048 6.0672-3.072 12.4672-3.072 19.1488 0 8.0384 1.5104 15.6672 4.5056 22.6304 3.0464 7.0912 7.2448 13.312 12.4928 18.56 5.248 5.248 11.4944 9.472 18.56 12.4928 6.9888 2.9952 14.5152 4.5312 22.4 4.5312a56.32 56.32 0 0 0 19.2256-3.2512l-74.112-74.112z m54.2208 127.104c-14.592 0-28.6208-2.816-41.6768-8.3456a106.0864 106.0864 0 0 1-34.048-22.9376 110.1824 110.1824 0 0 1-22.8352-33.92 104.4736 104.4736 0 0 1-8.4992-41.856c0-14.6432 2.8416-28.672 8.4992-41.6512a107.5712 107.5712 0 0 1 56.832-56.96 104.7552 104.7552 0 0 1 41.728-8.448c14.7968 0 28.8768 2.816 41.8816 8.4736a107.7504 107.7504 0 0 1 56.832 56.9856c5.5552 12.9792 8.3712 26.9568 8.3712 41.6 0 14.7712-2.816 28.8256-8.3712 41.8048-5.504 12.9024-13.2096 24.32-22.8864 34.0224a107.776 107.776 0 0 1-33.9968 22.8864 105.7024 105.7024 0 0 1-41.8304 8.3456z" fill="#ffffff" p-id="9795"></path></svg>