<?xml version="1.0" standalone="no"?><!DOCTYPE svg PUBLIC "-//W3C//DTD SVG 1.1//EN" "http://www.w3.org/Graphics/SVG/1.1/DTD/svg11.dtd"><svg t="1559707512934" class="icon" style="" viewBox="0 0 1024 1024" version="1.1" xmlns="http://www.w3.org/2000/svg" p-id="3917" xmlns:xlink="http://www.w3.org/1999/xlink" width="64" height="64"><defs><style type="text/css"></style></defs><path d="M690.5088 645.12h-12.4928v-180.0192a19.84 19.84 0 0 0-19.9424-19.7632H568.832v-118.4a19.8144 19.8144 0 0 0-19.968-19.7376h-197.2736a19.8144 19.8144 0 0 0-19.9424 19.712V645.12h-4.5312a19.84 19.84 0 0 0-19.9168 19.712v25.856c0 10.9056 8.9088 19.7632 19.9168 19.7632h363.392c11.008 0 19.9424-8.8576 19.9424-19.7632v-25.856a19.84 19.84 0 0 0-19.9424-19.712z m-178.8416-72.1152a19.84 19.84 0 0 1-19.9168 19.7376h-83.0208a19.84 19.84 0 0 1-19.968-19.7376v-5.9392c0-10.88 8.9344-19.712 19.968-19.712h83.0208c11.008 0 19.9168 8.832 19.9168 19.712v5.9392z m0-86.1952c0 10.9056-8.9088 19.712-19.9168 19.712h-83.0208a19.8144 19.8144 0 0 1-19.968-19.712v-5.9136c0-10.9056 8.9344-19.7632 19.968-19.7632h83.0208c11.008 0 19.9168 8.8576 19.9168 19.7632v5.9136z m0-92.7744c0 10.9056-8.9088 19.712-19.9168 19.712h-83.0208a19.8144 19.8144 0 0 1-19.968-19.712v-5.888c0-10.9312 8.9344-19.7632 19.968-19.7632h83.0208c11.008 0 19.9168 8.832 19.9168 19.7376v5.888z m127.1552 214.1696h-53.1456a16.5376 16.5376 0 0 1-16.64-16.4608c0-9.088 7.4496-16.4352 16.64-16.4352h53.1456c9.1648 0 16.5888 7.3472 16.5888 16.4352 0 9.088-7.424 16.4608-16.5888 16.4608z m0-66.4576h-53.1456a16.5376 16.5376 0 0 1-16.64-16.4608c0-9.088 7.4496-16.4352 16.64-16.4352h53.1456c9.1648 0 16.5888 7.3472 16.5888 16.4352 0 9.088-7.424 16.4608-16.5888 16.4608z" fill="#ffffff" p-id="3918"></path></svg>