<?xml version="1.0" standalone="no"?><!DOCTYPE svg PUBLIC "-//W3C//DTD SVG 1.1//EN" "http://www.w3.org/Graphics/SVG/1.1/DTD/svg11.dtd"><svg t="1559707879324" class="icon" style="" viewBox="0 0 1024 1024" version="1.1" xmlns="http://www.w3.org/2000/svg" p-id="7300" xmlns:xlink="http://www.w3.org/1999/xlink" width="64" height="64"><defs><style type="text/css"></style></defs><path d="M292.864 540.1344c-20.3264 0-36.864-16.5376-36.864-36.864 0-9.728 0.9216-20.5056 7.5776-27.6736 24.4992-47.232 57.2672-83.1744 97.4336-106.8288C401.4848 344.9088 450.688 332.8 507.2128 332.8c59.4944 0 105.9584 12.1088 146.176 38.1184 37.7344 24.3712 70.3232 61.5168 102.5792 116.864l0.1792 0.3072 0.1536 0.3328c2.56 5.8112 1.92 10.3168 1.1264 12.8a36.9152 36.9152 0 0 1-36.864 35.584c-9.0112 0-17.7408-3.4048-24.6016-9.6l-2.3552-2.2016-0.512-0.896a236.0576 236.0576 0 0 0-76.9536-82.4832c-33.5872-21.8112-71.3216-33.3568-109.1328-33.3568-82.2272 0-147.0208 56.576-180.352 109.696a36.864 36.864 0 0 1-4.4288 7.3472l-0.64 1.0752-0.9728 1.6384-1.1008-0.512 0.6144 0.5888c-7.2704 7.424-17.7408 12.032-27.2896 12.032z" fill="#ffffff" p-id="7301"></path><path d="M374.3488 611.072c-20.3264 0-36.864-16.512-36.864-36.8384 0-10.2656 3.5072-19.0208 10.6752-26.7776 37.0176-58.7264 94.208-92.416 156.9792-92.416 60.928 0 118.1696 32.8448 153.2416 87.8592l2.9184 3.7888c5.4272 7.0144 10.5472 13.6448 10.5472 24.192 0 20.3264-16.512 36.864-36.8384 36.864-6.8608 0-13.6448-1.9968-19.6096-5.7344l-0.256-0.1536-2.9184-2.2272-0.2304-0.2048a21.4016 21.4016 0 0 1-4.1984-4.5312l-0.896-1.2288c-2.3552-2.8672-3.7376-5.504-5.1968-8.2688-0.6144-1.152-1.2544-2.3808-2.048-3.7376-20.224-34.5344-55.6544-55.168-94.72-55.168-39.3472 0-74.8544 20.48-95.0016 54.784l-0.1024 0.1792c-1.792 2.8672-3.072 5.5552-4.7104 8.96-1.1008 2.304-2.3552 4.9408-4.0192 8.1152l-0.4096 0.768-0.5632 0.6144c-0.5632 0.8704-1.2544 1.536-1.792 2.048l-2.2016 1.92-0.256 0.1792c-6.3744 4.608-13.824 7.0144-21.504 7.0144" fill="#ffffff" p-id="7302"></path><path d="M503.3728 696.6528a64.768 64.768 0 0 1-64.6912-64.6912c0-17.28 6.7328-33.536 18.944-45.7472a64.256 64.256 0 0 1 45.7472-18.944 64.768 64.768 0 0 1 64.7168 64.6912 64.768 64.768 0 0 1-64.7168 64.6912" fill="#ffffff" p-id="7303"></path></svg>