<?xml version="1.0" standalone="no"?><!DOCTYPE svg PUBLIC "-//W3C//DTD SVG 1.1//EN" "http://www.w3.org/Graphics/SVG/1.1/DTD/svg11.dtd"><svg t="1559707821265" class="icon" style="" viewBox="0 0 1024 1024" version="1.1" xmlns="http://www.w3.org/2000/svg" p-id="6745" xmlns:xlink="http://www.w3.org/1999/xlink" width="64" height="64"><defs><style type="text/css"></style></defs><path d="M431.104 381.6448a16.6144 16.6144 0 0 0 16.128 12.5952h150.912a16.6144 16.6144 0 0 0 16.1024-12.5952l16.256-65.0496A28.16 28.16 0 0 0 603.1872 281.6h-161.0496a28.16 28.16 0 0 0-27.3152 34.9952l16.2816 65.0496z" fill="#ffffff" p-id="6746"></path><path d="M660.1728 639.5136L607.3088 429.824a16.6144 16.6144 0 0 0-16.1024-12.544H454.144a16.6144 16.6144 0 0 0-16.1024 12.544L385.152 639.5136A28.16 28.16 0 0 0 400.6144 671.9744l110.2336 51.0208a28.16 28.16 0 0 0 23.6544 0l110.208-51.0208a28.16 28.16 0 0 0 15.4624-32.4352" fill="#ffffff" p-id="6747"></path></svg>