<?xml version="1.0" standalone="no"?><!DOCTYPE svg PUBLIC "-//W3C//DTD SVG 1.1//EN" "http://www.w3.org/Graphics/SVG/1.1/DTD/svg11.dtd"><svg t="1559708001387" class="icon" style="" viewBox="0 0 1024 1024" version="1.1" xmlns="http://www.w3.org/2000/svg" p-id="8276" xmlns:xlink="http://www.w3.org/1999/xlink" width="64" height="64"><defs><style type="text/css"></style></defs><path d="M730.0608 427.3664c1.4848 5.7344 2.3552 11.904 2.3552 18.0736v152.9856a70.784 70.784 0 0 1-70.8096 70.8096H378.0096A70.784 70.784 0 0 1 307.2 598.4256V445.44c0-6.4 0.8448-12.3392 2.3296-18.0736l173.2864 120.1152c24.0128 17.8688 50.5856 16.9984 73.984 0l173.2608-120.1152z" fill="#ffffff" p-id="8277"></path><path d="M661.6064 358.4H377.984a70.4 70.4 0 0 0-61.0048 35.072l169.216 116.096c21.504 17.6384 44.2368 17.408 67.2 0l169.216-116.096A70.656 70.656 0 0 0 661.632 358.4" fill="#ffffff" p-id="8278"></path></svg>