<?xml version="1.0" standalone="no"?><!DOCTYPE svg PUBLIC "-//W3C//DTD SVG 1.1//EN" "http://www.w3.org/Graphics/SVG/1.1/DTD/svg11.dtd"><svg t="1559708255451" class="icon" style="" viewBox="0 0 1024 1024" version="1.1" xmlns="http://www.w3.org/2000/svg" p-id="10936" xmlns:xlink="http://www.w3.org/1999/xlink" width="64" height="64"><defs><style type="text/css"></style></defs><path d="M645.632 575.0528c0 13.568-11.008 24.576-24.6272 24.576h-156.7744a24.6016 24.6016 0 0 1-24.6272-24.576v-185.5488c0-13.568 11.008-24.6016 24.6272-24.6016h156.7744c13.5936 0 24.6016 11.008 24.6016 24.6016v185.5488z m-103.0144 128.6912c-14.848 0-27.264-12.3904-27.264-27.264 0-14.848 12.3904-27.264 27.264-27.264 14.848 0 27.264 12.3904 27.264 27.264 0 14.848-12.3904 27.264-27.264 27.264zM676.4544 307.2H408.7808c-14.848 0-24.7808 9.9072-24.7808 24.7808V703.744c0 14.848 9.9072 24.7808 24.7808 24.7808h267.6736c14.848 0 24.7808-9.9072 24.7808-24.7808V331.9808c0-14.848-9.9072-24.7808-24.7808-24.7808z" fill="#ffffff" p-id="10937"></path></svg>