<?xml version="1.0" encoding="UTF-8"?>
<svg width="433px" height="250px" viewBox="0 0 433 250" version="1.1" xmlns="http://www.w3.org/2000/svg" xmlns:xlink="http://www.w3.org/1999/xlink">
    <!-- Generator: Sketch 57.1 (83088) - https://sketch.com -->
    <title>-Map no data2</title>
    <desc>Created with Sketch.</desc>
    <defs>
        <polygon id="path-1" points="0 0.071935907 90.9372888 0.071935907 90.9372888 32.4683939 0 32.4683939"></polygon>
        <polygon id="path-3" points="0.153406576 0.00798271022 75.153176 0.00798271022 75.153176 30.7643432 0.153406576 30.7643432"></polygon>
    </defs>
    <g id="UI-规范" stroke="none" stroke-width="1" fill="none" fill-rule="evenodd">
        <g id="icon" transform="translate(-2380.000000, -1472.000000)">
            <g id="编组" transform="translate(2380.000000, 1472.000000)">
                <g id="Group-45" transform="translate(0.000000, 0.000000)">
                    <path d="M348.514568,110.331315 L301.092791,110.331315 C301.488973,108.996436 301.705199,107.586999 301.705199,106.128409 C301.705199,97.9239055 294.975075,91.2116825 286.749368,91.2116825 L277.454992,91.2116825 C277.48157,91.1813067 277.506488,91.1501025 277.532512,91.1200028 L270.081452,91.1200028 C266.296259,91.1200028 263.227573,88.0592269 263.227573,84.2835152 C263.227573,80.5080796 266.296259,77.4473037 270.081452,77.4473037 L311.049409,77.4473037 C319.007395,76.8602224 325.286518,69.995292 324.882307,61.8300012 C324.487231,53.8488983 317.715025,47.6588629 309.703606,47.6588629 L174.852512,47.6588629 C166.627082,47.6588629 159.897235,54.371362 159.897235,62.5758651 C159.897235,63.9115718 160.078576,65.2069616 160.412743,66.4410474 L131.404744,66.4410474 C123.065525,66.4410474 116.093982,73.2471592 116.208324,81.5640528 C116.319897,89.674391 123.006001,96.275052 131.162493,96.275052 C131.162493,96.275052 131.223125,96.3421549 131.327777,96.4611728 L154.292812,96.4611728 C161.197356,96.4611728 166.992256,102.096159 166.897848,108.982353 C166.805654,115.698166 161.269616,121.1636 154.515683,121.1636 L78.3298171,121.1636 C70.8056666,122.096966 64.9678538,128.657586 65.2256079,136.459196 C65.4924983,144.541643 72.3090016,150.879139 80.4162136,150.879139 L109.771669,150.879139 C112.062386,150.879139 113.871648,152.753326 113.864727,155.038138 L113.864727,155.082045 C113.864727,163.286272 120.594574,169.998771 128.820281,169.998771 L146.316554,169.998771 C146.316554,169.998771 139.630727,176.599432 139.518877,184.709494 C139.404535,193.026664 146.376078,199.832776 154.715297,199.832776 L289.329955,199.832776 C297.448795,199.832776 304.264191,193.474017 304.513916,185.379695 C304.741493,178.007213 299.526609,171.745656 292.594379,170.308881 L261.259394,170.308881 C253.074662,170.308881 246.232411,163.628966 246.344539,155.465885 C246.453897,147.506045 253.016246,141.027716 261.021851,141.027716 L317.48025,141.027716 C334.191356,139.787002 348.756818,140.165043 348.756818,140.165043 C356.913311,140.165043 363.599137,133.564658 363.712375,125.45432 C363.82533,117.13715 356.853786,110.331315 348.514568,110.331315" id="Fill-1" fill="#364358"></path>
                    <path d="M345.631367,25.1879988 L342.913912,25.1879988 L342.913912,27.9053901 C342.913912,28.6567579 342.306441,29.264214 341.555056,29.264214 C340.805209,29.264214 340.1962,28.6567579 340.1962,27.9053901 L340.1962,25.1879988 L337.479001,25.1879988 C336.728898,25.1879988 336.120401,24.5807992 336.120401,23.8294314 C336.120401,23.0793463 336.728898,22.4706075 337.479001,22.4706075 L340.1962,22.4706075 L340.1962,19.7532162 C340.1962,19.0033876 340.805209,18.3946488 341.555056,18.3946488 C342.306441,18.3946488 342.913912,19.0033876 342.913912,19.7532162 L342.913912,22.4706075 L345.631367,22.4706075 C346.382753,22.4706075 346.989967,23.0793463 346.989967,23.8294314 C346.989967,24.5807992 346.382753,25.1879988 345.631367,25.1879988" id="Fill-3" fill="#364358"></path>
                    <path d="M140.781869,221.676453 L138.064413,221.676453 L138.064413,224.393909 C138.064413,225.145038 137.456943,225.752508 136.705557,225.752508 C135.955711,225.752508 135.346701,225.145038 135.346701,224.393909 L135.346701,221.676453 L132.629502,221.676453 C131.8794,221.676453 131.270903,221.06924 131.270903,220.317854 C131.270903,219.567495 131.8794,218.958998 132.629502,218.958998 L135.346701,218.958998 L135.346701,216.241543 C135.346701,215.491696 135.955711,214.882943 136.705557,214.882943 C137.456943,214.882943 138.064413,215.491696 138.064413,216.241543 L138.064413,218.958998 L140.781869,218.958998 C141.533254,218.958998 142.140468,219.567495 142.140468,220.317854 C142.140468,221.06924 141.533254,221.676453 140.781869,221.676453" id="Fill-5" fill="#364358"></path>
                    <path d="M85.5979223,69.5025404 L82.8804668,69.5025404 L82.8804668,72.2199959 C82.8804668,72.9711249 82.2729964,73.5785953 81.5216109,73.5785953 C80.7717645,73.5785953 80.1627549,72.9711249 80.1627549,72.2199959 L80.1627549,69.5025404 L77.445556,69.5025404 C76.6954531,69.5025404 76.0869565,68.89507 76.0869565,68.1436844 C76.0869565,67.3935816 76.6954531,66.7848285 77.445556,66.7848285 L80.1627549,66.7848285 L80.1627549,64.067373 C80.1627549,63.3175267 80.7717645,62.7090301 81.5216109,62.7090301 C82.2729964,62.7090301 82.8804668,63.3175267 82.8804668,64.067373 L82.8804668,66.7848285 L85.5979223,66.7848285 C86.3493078,66.7848285 86.9565217,67.3935816 86.9565217,68.1436844 C86.9565217,68.89507 86.3493078,69.5025404 85.5979223,69.5025404" id="Fill-7" fill="#364358"></path>
                    <path d="M198.160535,5.4346478 C198.160535,8.43628167 195.727521,10.8695652 192.725887,10.8695652 C189.724253,10.8695652 187.29097,8.43628167 187.29097,5.4346478 C187.29097,2.43301393 189.724253,0 192.725887,0 C195.727521,0 198.160535,2.43301393 198.160535,5.4346478" id="Fill-9" fill="#364358"></path>
                    <path d="M266.722408,244.565352 C266.722408,247.566986 264.289185,250 261.287625,250 C258.286066,250 255.852843,247.566986 255.852843,244.565352 C255.852843,241.563718 258.286066,239.130435 261.287625,239.130435 C264.289185,239.130435 266.722408,241.563718 266.722408,244.565352" id="Fill-11" fill="#364358"></path>
                    <path d="M18.3946488,104.097125 C18.3946488,107.098759 15.9613653,109.531773 12.9597314,109.531773 C9.95809754,109.531773 7.52508361,107.098759 7.52508361,104.097125 C7.52508361,101.095491 9.95809754,98.6622074 12.9597314,98.6622074 C15.9613653,98.6622074 18.3946488,101.095491 18.3946488,104.097125" id="Fill-13" fill="#364358"></path>
                    <path d="M394.648829,170.150636 C394.648829,173.15227 392.215816,175.585284 389.214182,175.585284 C386.212548,175.585284 383.779264,173.15227 383.779264,170.150636 C383.779264,167.149003 386.212548,164.715719 389.214182,164.715719 C392.215816,164.715719 394.648829,167.149003 394.648829,170.150636" id="Fill-15" fill="#364358"></path>
                    <path d="M116.521974,33.4448161 C115.421899,33.4448161 114.400224,32.8575866 113.856121,31.9121308 C113.314503,30.9713097 113.326098,29.8099367 113.885659,28.8819288 C115.263444,26.5968047 115.911619,23.9768999 115.760617,21.3049242 C115.373866,14.4691808 109.641054,8.93166716 102.708787,8.69802944 C102.550056,8.69284961 102.392982,8.68985076 102.235355,8.68985076 C95.1277941,8.68985076 89.2009161,14.1630255 88.7238949,21.1593436 L88.6899402,23.1759342 C88.6496364,25.5256699 86.6816478,27.4419353 84.302615,27.4484782 L82.3415279,27.4536581 C81.1539438,27.4536581 80.0488999,27.0016495 79.2182536,26.1805098 C78.2009949,25.1693519 76.7950522,24.5916643 75.3570872,24.5916643 C72.315801,24.5946631 69.8545041,27.0160985 69.8362846,29.9950475 L69.8365606,30.0299432 C69.8398733,30.948682 69.4826595,31.8107152 68.830068,32.4568311 C68.1874144,33.0939505 67.3319233,33.4448161 66.4212213,33.4448161 L64.454061,33.4448161 C62.5826913,33.4448161 61.0500399,31.9492075 61.0367893,30.1106396 L61.0367893,30.0201288 C61.0367893,22.235113 67.4503504,15.9012682 75.3336226,15.9012682 C77.1241085,15.9012682 78.8811918,16.2284156 80.5231606,16.858992 C82.9159961,7.08573839 91.8270172,0 102.235355,0 C102.482147,0 102.7317,0.00381671877 102.979872,0.0117227791 C114.563371,0.386033841 124.042235,9.63312554 124.559284,21.063653 C124.666393,23.4381973 124.393376,25.7884782 123.74741,28.0501567 C122.840297,31.226212 119.869128,33.4448161 116.521974,33.4448161" id="Fill-17" fill="#364358"></path>
                    <path d="M314.316743,230.769231 C313.152173,230.769231 312.037409,230.274113 311.257858,229.410308 C310.478586,228.546782 310.101402,227.389367 310.223119,226.234185 C311.495416,214.153474 321.645811,204.960021 333.834343,204.850336 L334.053434,204.849498 C346.130042,204.849498 356.351229,213.858468 357.828627,225.805492 C357.97217,226.965419 357.611214,228.135114 356.838938,229.014269 C356.066382,229.893145 354.951618,230.403614 353.780053,230.414499 L353.653019,230.414778 C351.583823,230.414778 349.826895,228.8563 349.566671,226.789588 C348.587056,219.01311 341.9175,213.148446 334.052595,213.148446 L333.909332,213.149283 C325.971677,213.220732 319.34773,219.204849 318.501304,227.069243 C318.276337,229.1594 316.532,230.749694 314.443497,230.768393 L314.316743,230.769231 Z" id="Fill-19" fill="#364358"></path>
                    <path d="M74.4280718,189.799331 C66.5854201,189.799331 60.2276626,196.080777 60.2276626,203.829572 C57.3434817,212.305086 51.8967108,210.00251 45.358164,208.763861 C38.8196172,207.525211 35.9923201,210.451563 35.9923201,210.451563 L35.9531773,213.210702 L63.8713276,213.210702 L65.9836339,213.210702 L84.9850976,213.210702 C87.2494696,210.725334 88.6287625,207.437014 88.6287625,203.829572 C88.6287625,196.080777 82.271005,189.799331 74.4280718,189.799331" id="Fill-21" fill="#414E64"></path>
                    <path d="M390.614477,67.7257525 C398.083711,67.7257525 404.138931,73.7827506 404.138931,81.25452 C406.885626,89.4274272 412.073118,87.207111 418.300163,86.0128164 C424.527485,84.8185218 427.220329,87.6402893 427.220329,87.6402893 L427.257525,90.3010033 L400.668852,90.3010033 L398.6572,90.3010033 L380.560103,90.3010033 C378.403829,87.9040837 377.090301,84.7332745 377.090301,81.25452 C377.090301,73.7827506 383.145244,67.7257525 390.614477,67.7257525" id="Fill-23" fill="#414E64"></path>
                    <g id="Group-27" transform="translate(0.000000, 181.438127)">
                        <mask id="mask-2" fill="white">
                            <use xlink:href="#path-1"></use>
                        </mask>
                        <g id="Clip-26"></g>
                        <path d="M83.994155,32.4683939 C82.8383706,32.4683939 81.7958171,31.8651331 81.2045305,30.8545446 C80.6137962,29.8450806 80.5897692,28.6253467 81.1393537,27.5919884 C82.2575785,25.4923819 82.7787172,23.1125094 82.6467064,20.7090236 C82.2835388,14.0877717 76.8956778,8.7236413 70.3804781,8.4973482 C70.2313446,8.49228823 70.0838682,8.48947714 69.9358394,8.48947714 C63.2560406,8.48947714 57.6856291,13.7914824 57.237124,20.5679067 L57.2252486,21.285298 C57.1766421,24.2422882 54.7731076,26.6553317 51.866938,26.663765 L51.2391966,26.6651705 C50.1234572,26.6651705 49.0850464,26.2274831 48.3037527,25.4325056 C47.3473652,24.452277 46.0261531,23.8928692 44.6748381,23.8928692 C41.8078851,23.8956803 39.4894119,26.255313 39.486374,29.1529891 C39.4877549,30.0469172 39.1508237,30.87619 38.5385479,31.5005341 C37.9262722,32.1245971 37.1118377,32.4683939 36.2449303,32.4683939 L4.12958878,32.4683939 C1.85254155,32.4683939 -2.76173102e-05,30.5827118 -2.76173102e-05,28.2649644 C-2.76173102e-05,25.947217 1.85254155,24.061816 4.12958878,24.061816 L32.1854619,24.061816 C34.2103631,18.9436563 39.1568995,15.4750469 44.6527442,15.4750469 C46.3357431,15.4750469 47.9872583,15.7918572 49.5299612,16.402708 C51.779115,6.93578523 60.1537881,0.071935907 69.9361156,0.071935907 C70.1678248,0.071935907 70.4017434,0.0758714393 70.6353859,0.0834613943 C81.5215772,0.446092579 90.4298168,9.40336394 90.9156053,20.4757028 C91.0448543,23.4127343 90.5957968,26.2825806 89.5816892,29.0051256 C88.8097854,31.0769022 86.8271387,32.4683939 84.6473044,32.4683939 L83.994155,32.4683939 Z" id="Fill-25" fill="#364358" mask="url(#mask-2)"></path>
                    </g>
                    <g id="Group-30" transform="translate(357.023411, 58.528428)">
                        <mask id="mask-4" fill="white">
                            <use xlink:href="#path-3"></use>
                        </mask>
                        <g id="Clip-29"></g>
                        <path d="M70.2556469,30.7643432 C69.4270577,30.7643432 68.6485436,30.441444 68.0639663,29.8555848 C67.4708126,29.261163 67.1460167,28.4681401 67.14906,27.6234644 C67.1462934,24.8659766 64.9023245,22.6258458 62.146816,22.6228074 C60.8191367,22.6228074 59.5407025,23.1542515 58.6188797,24.0804116 C57.8583483,24.8394597 56.853805,25.2548921 55.7850771,25.2548921 L54.9990932,25.2526823 C52.2787201,25.2455006 50.0283881,23.0299533 49.9830163,20.3138983 L49.9689068,19.4664604 C49.5345545,13.0333351 44.1433301,7.99980814 37.6781213,7.99980814 C37.5350894,7.99980814 37.3917808,8.00229411 37.2476423,8.00698982 C30.9417882,8.22216391 25.7273479,13.3145254 25.3754396,19.6004263 C25.2545403,21.7632159 25.7043853,23.9182715 26.6762831,25.8332933 C27.2129986,26.8914858 27.1612636,28.1275629 26.538231,29.1396269 C25.9127084,30.1572153 24.8254445,30.7643432 23.6305608,30.7643432 L4.15055393,30.7643432 C1.94642374,30.7643432 0.153406576,28.9744483 0.153406576,26.7738167 C0.153406576,24.5731852 1.94642374,22.7830141 4.15055393,22.7830141 L17.5039808,22.7830141 C17.4027242,21.9604358 17.3515425,21.1312284 17.3515425,20.3025733 C17.3515425,9.11213942 26.4698966,0.00798271022 37.6781213,0.00798271022 C47.1458938,0.00798271022 55.2516815,6.52452595 57.4284226,15.5118423 C58.921543,14.93206 60.52007,14.6312582 62.1487526,14.6312582 C69.319438,14.6312582 75.1533144,20.4561507 75.1533144,27.615454 L75.1533144,27.6983195 C75.1414181,29.3887758 73.747341,30.7643432 72.0450675,30.7643432 L70.2556469,30.7643432 Z" id="Fill-28" fill="#364358" mask="url(#mask-4)"></path>
                    </g>
                    <path d="M219.598317,112.876254 C219.598317,112.876254 215.603341,132.010131 240.802676,136.873721 L239.876668,142.976589 L215.527055,142.146666 C215.527055,142.146666 206.215747,125.506385 219.598317,112.876254" id="Fill-31" fill="#4D5E7C"></path>
                    <path d="M192.294654,78.5953177 C192.294654,78.5953177 181.661044,98.5535291 202.341137,99.7067748 C191.756992,103.28906 184.229724,99.1692428 184.229724,99.1692428 L182.274247,89.2236821 C182.274247,89.2236821 190.661237,81.1414938 192.294654,78.5953177" id="Fill-33" fill="#4D5E7C"></path>
                    <path d="M258.735121,68.5618729 C258.735121,68.5618729 270.376455,91.2297226 252.508361,93.2762725 C259.00585,97.2703278 268.532251,90.0587154 268.532251,90.0587154 C268.532251,90.0587154 275.791029,71.8481491 258.735121,68.5618729" id="Fill-35" fill="#4D5E7C"></path>
                    <path d="M264.445433,149.665552 C264.445433,149.665552 255.302924,169.630025 278.428094,173.518647 L272.243455,176.358301 L266.736707,179.765886 L254.817027,168.813624 L250,158.622389 L264.445433,149.665552 Z" id="Fill-37" fill="#4D5E7C"></path>
                    <path d="M186.441006,141.304348 C186.441006,141.304348 176.459545,164.605569 194.816054,173.913043 C182.299816,172.931901 178.56489,170.038333 178.56489,170.038333 L174.749164,161.313122 L177.574372,151.388736 L186.441006,141.304348 Z" id="Fill-39" fill="#4D5E7C"></path>
                    <polygon id="Fill-41" fill="#C9CFD3" points="229.94398 100.334448 229.93311 101.170569 229.94398 101.170569"></polygon>
                    <path d="M266.74839,174.918473 C260.848899,174.918473 256.049005,170.13265 256.049005,164.250178 C256.049005,158.367706 260.848899,153.581883 266.74839,153.581883 C272.648156,153.581883 277.447775,158.367706 277.447775,164.250178 C277.447775,170.23232 272.748396,174.918473 266.74839,174.918473 M229.224328,139.247264 L229.153636,139.248365 C221.22837,139.248365 214.780462,132.819635 214.780462,124.917326 C214.780462,117.014742 221.22837,110.585736 229.153636,110.585736 L229.206655,110.585736 L229.23206,110.587113 C237.11618,110.629239 243.527085,117.053839 243.527085,124.917326 C243.527085,132.918754 237.245691,139.210094 229.224328,139.247264 M189.637764,168.888424 C183.737997,168.888424 178.938379,164.1026 178.938379,158.220128 C178.938379,152.337932 183.737997,147.552383 189.637764,147.552383 C195.536978,147.552383 200.336873,152.337932 200.336873,158.220128 C200.336873,164.20227 195.636941,168.888424 189.637764,168.888424 M193.733221,99.8736629 C188.96812,99.8736629 185.091644,96.0082747 185.091644,91.2574182 C185.091644,86.5062863 188.96812,82.6411734 193.733221,82.6411734 C198.498321,82.6411734 202.374798,86.5062863 202.374798,91.2574182 C202.374798,96.0886717 198.578955,99.8736629 193.733221,99.8736629 M256.208063,73.0042722 C261.872556,73.0042722 266.480808,77.5992907 266.480808,83.2474548 C266.480808,88.9914344 261.968378,93.491188 256.208063,93.491188 C250.543016,93.491188 245.934764,88.8956188 245.934764,83.2474548 C245.934764,77.5992907 250.543016,73.0042722 256.208063,73.0042722 M266.74839,146.079632 C266.4184,146.079632 266.052237,146.093398 265.581691,146.12396 C265.452733,146.131669 265.323223,146.141031 265.188465,146.153145 C264.88112,146.179577 264.57046,146.21482 264.257316,146.258322 C264.126977,146.276494 263.996362,146.295492 263.869061,146.315591 C263.544594,146.36818 263.227307,146.428202 262.905602,146.498137 C262.786033,146.524568 262.667568,146.552102 262.552969,146.57936 C261.607184,146.805407 260.661675,147.116257 259.742952,147.50365 L258.54643,148.008058 L249.135798,138.460365 C251.13893,135.587824 252.484016,132.302285 253.071369,128.784642 C253.287588,127.484799 253.397493,126.160175 253.398597,124.847116 C253.272953,117.70913 250.012824,111.28095 244.961089,106.89188 L250.041819,99.1886365 L251.406235,99.5886942 C253.021388,100.06199 254.683761,100.30208 256.346962,100.30208 C264.820645,100.30208 271.973542,94.2954333 273.355631,86.020325 C273.510271,85.0888763 273.588971,84.1376037 273.590076,83.192939 C273.420801,73.7410611 265.626702,66.0535117 256.208063,66.0535117 C255.897679,66.0535117 255.550569,66.0667276 255.104048,66.0959129 C254.980613,66.1030715 254.856901,66.1121575 254.732361,66.1228954 C254.46478,66.1462986 254.175936,66.1793385 253.84788,66.223667 C253.725549,66.2399116 253.602942,66.2586342 253.48144,66.2776321 C253.184035,66.3252646 252.887735,66.3814323 252.576247,66.4486134 L252.23825,66.526257 C250.954191,66.8338031 249.71542,67.2850725 248.557006,67.868226 L247.384508,68.4585382 L246.626223,68.964048 C244.718913,70.2352566 243.104865,71.8481525 241.830195,73.756755 C241.650426,74.0257546 241.472591,74.3123753 241.277083,74.6455273 L241.163865,74.8421144 C240.967804,75.1887576 240.798253,75.5108963 240.646651,75.8261516 L240.586729,75.9561084 C240.440926,76.2655817 240.306997,76.5764317 240.153462,76.9599695 L240.089121,77.1232414 C239.948565,77.4894332 239.825958,77.8429597 239.723786,78.1741843 L239.690925,78.2870705 C239.588753,78.6254537 239.496798,78.9723723 239.403186,79.3754585 L239.371429,79.5122986 C239.20105,80.2824027 239.085623,81.065172 239.019073,81.8983272 L239.007751,82.0459052 C238.984003,82.3975044 238.970195,82.7223963 238.966053,83.038753 L238.953627,83.9002674 L239.04503,84.8537426 C239.250479,86.9952762 239.854125,89.0547608 240.840227,90.9749273 L240.967804,91.223277 L241.060864,91.2029024 L241.782698,92.3463569 C241.97655,92.6536276 242.185865,92.9622749 242.404017,93.2637636 L243.185498,94.3436164 L237.770636,102.549616 C235.121333,101.523453 232.256363,100.952139 229.273481,100.937271 L229.199475,100.935619 L229.199475,100.93672 L229.153636,100.935619 C228.711257,100.935619 228.233808,100.953516 227.622706,100.992338 L227.525228,100.999221 C227.383291,101.009408 227.242183,101.019595 227.101627,101.031985 C226.711715,101.065851 226.30054,101.112382 225.873901,101.171028 C225.701036,101.194431 225.528448,101.218661 225.353098,101.247295 C224.914585,101.318606 224.486565,101.399278 224.083675,101.487385 C223.929588,101.521251 223.776329,101.557044 223.617271,101.594489 C221.620491,102.07219 219.705172,102.799893 217.923783,103.758049 L216.474591,104.537239 L215.78976,104.99374 C215.607506,105.115712 215.427462,105.239887 215.248798,105.365714 L213.921109,106.301017 L206.642291,99.0435365 L207.255878,97.8067444 C207.915028,96.4771653 208.369833,95.0826079 208.606763,93.6635459 C208.742901,92.8455341 208.809727,92.0407382 208.810556,91.204279 C208.66282,83.0081911 201.902596,76.3426747 193.733221,76.3426747 C193.45846,76.3426747 193.152495,76.3542387 192.782741,76.3779173 L192.708459,76.3828732 C192.624788,76.3886552 192.542498,76.3938865 192.457723,76.4018712 C192.21886,76.4227964 191.968676,76.4506049 191.693086,76.4880501 L191.358955,76.5373346 C191.087508,76.5819384 190.830972,76.6306722 190.58631,76.684362 C190.491042,76.7047365 190.395773,76.7264878 190.289734,76.7520937 C189.291482,76.9908067 188.323606,77.3300159 187.413443,77.7606354 L186.266626,78.3030398 L185.421081,78.8666447 C183.765611,79.970176 182.365297,81.3699648 181.261007,83.0238851 C181.102225,83.2625981 180.94869,83.5090203 180.79626,83.7697599 L180.677519,83.974607 C180.510177,84.2708644 180.367964,84.5417913 180.24232,84.8014295 L180.181293,84.935241 C180.060343,85.1907492 179.942154,85.4644294 179.814024,85.7843654 L179.753549,85.9377254 C179.631495,86.254908 179.524628,86.5627294 179.434882,86.8532048 L179.405335,86.9542517 C179.315865,87.2513351 179.234403,87.5591565 179.155703,87.8991917 L179.125327,88.0296992 C178.980905,88.6847144 178.879561,89.3727695 178.824056,90.0685339 L178.812458,90.2185899 C178.797823,90.4281177 178.78733,90.6417754 178.780702,90.8529552 L178.755021,91.7169475 L178.844491,92.6505989 C179.023155,94.5088157 179.547548,96.2957215 180.402206,97.9606551 L180.57369,98.2949083 L180.643278,98.279765 L181.36815,99.3832964 C184.110789,103.55981 188.778135,106.053218 193.85279,106.053218 C196.037623,106.053218 198.150383,105.595616 200.132804,104.691976 L201.351141,104.136906 L208.996399,111.761129 L208.170735,113.19148 C207.893765,113.682122 207.659045,114.12871 207.452767,114.556852 L207.364954,114.747933 C207.168893,115.165336 206.977527,115.606969 206.798587,116.054384 L206.672391,116.372943 C206.471636,116.897451 206.302913,117.382035 206.157663,117.854505 L206.116241,117.997953 C205.972372,118.475379 205.844242,118.959689 205.714731,119.517512 L205.670273,119.708592 C205.432515,120.782663 205.2718,121.873254 205.179293,123.035981 L205.163276,123.242756 C205.123788,123.823707 205.104182,124.359228 205.103078,124.879881 L205.109429,125.156865 L205.166038,126.648064 L205.214915,127.157429 C205.50155,130.142855 206.343782,133.014845 207.717863,135.69245 L207.89128,136.029732 L207.990967,136.008807 L208.915766,137.392076 L205.614216,139.941376 L200.966199,143.946358 L199.743996,143.129723 C196.729358,141.115117 193.234233,140.050133 189.637764,140.050133 C189.300595,140.050133 188.928908,140.064175 188.469961,140.094186 C188.338517,140.102721 188.206245,140.112908 188.084191,140.12282 C187.77933,140.149252 187.466462,140.18477 187.148071,140.229098 C187.019112,140.24672 186.890707,140.264892 186.756778,140.287194 C186.4174,140.341985 186.098732,140.402007 185.809888,140.465884 L185.789454,140.470289 C185.674303,140.494519 185.55998,140.521226 185.442067,140.54931 C184.090078,140.872274 182.782547,141.348599 181.555097,141.965343 L180.317983,142.587594 L179.511097,143.125593 C177.494434,144.469764 175.789536,146.174071 174.44445,148.188951 C174.250874,148.479427 174.066412,148.775684 173.86897,149.111865 L173.734213,149.34452 C173.526003,149.714842 173.350929,150.047994 173.199603,150.362148 L173.128911,150.515233 C172.9751,150.841777 172.833715,151.169147 172.684599,151.543048 L172.602309,151.750098 C172.453192,152.139968 172.325891,152.506986 172.213501,152.8707 L172.182297,152.97918 C172.073221,153.340416 171.975191,153.712115 171.874399,154.145212 L171.844576,154.273517 C171.664808,155.087123 171.542753,155.913946 171.472613,156.788676 L171.460739,156.952499 C171.435334,157.323096 171.420698,157.663407 171.416556,157.992704 L171.404682,158.929659 L171.499675,159.918377 C171.716722,162.180506 172.355162,164.357007 173.396768,166.386756 L173.566319,166.717154 L173.671529,166.693476 L174.397229,167.843538 C177.717557,173.104034 183.469588,176.244748 189.783567,176.244748 C198.738841,176.244748 206.298219,169.89669 207.75818,161.15159 C207.921932,160.167553 208.005326,159.161489 208.006155,158.161758 C207.967219,155.964607 207.535057,153.810684 206.722096,151.758358 L206.219518,150.488801 L214.283959,143.540794 L215.514447,144.399004 C219.553295,147.216203 224.336897,148.705199 229.348592,148.704924 L229.459601,148.703823 C230.442665,148.699142 231.434566,148.63554 232.408241,148.514394 L232.408517,148.514394 C232.553768,148.496222 232.698742,148.476673 232.840679,148.45685 L232.909162,148.446662 C233.050823,148.426012 233.191931,148.404261 233.325584,148.38251 L233.352093,148.378105 C233.618018,148.334327 233.877039,148.287796 234.121148,148.239337 L234.121148,148.239612 L234.319141,148.199414 C237.541715,147.534487 240.551106,146.237672 243.202066,144.390469 L252.068147,153.392454 L251.262918,154.687892 C251.224534,154.749566 251.185598,154.810965 251.146386,154.872089 C251.095024,154.952761 251.043385,155.032608 251.001688,155.104194 L250.84981,155.367136 C250.644913,155.729198 250.466249,156.068683 250.30443,156.404037 L250.239261,156.546384 C250.08683,156.869624 249.94517,157.197545 249.783351,157.603384 L249.717077,157.770786 C249.567684,158.15928 249.437345,158.533181 249.32965,158.883128 L249.293475,159.007027 C249.184399,159.36964 249.087474,159.736107 248.989443,160.155713 L248.955478,160.303291 C248.775157,161.119376 248.653379,161.942344 248.584344,162.815697 L248.571365,162.982273 C248.54596,163.353696 248.531324,163.695384 248.527182,164.026884 L248.515308,164.953101 L248.610301,165.947325 C248.8279,168.211382 249.46634,170.387883 250.50767,172.416255 L250.676945,172.746103 L250.782983,172.72325 L251.503713,173.866429 C254.822936,179.131331 260.576624,182.274247 266.894469,182.274247 C275.849467,182.274247 283.408845,175.925914 284.868806,167.180538 C285.032558,166.198153 285.117057,165.192915 285.117057,164.191808 C284.938945,154.203032 276.702192,146.079632 266.74839,146.079632" id="Fill-43" fill="#42516A"></path>
                </g>
            </g>
        </g>
    </g>
</svg>