<?xml version="1.0" encoding="UTF-8"?>
<svg width="517px" height="299px" viewBox="0 0 517 299" version="1.1" xmlns="http://www.w3.org/2000/svg" xmlns:xlink="http://www.w3.org/1999/xlink">
    <!-- Generator: Sketch 54.1 (76490) - https://sketchapp.com -->
    <title>-Map no data</title>
    <desc>Created with Sketch.</desc>
    <defs>
        <polygon id="path-1" points="0 0.0860353448 108.760997 0.0860353448 108.760997 38.8321991 0 38.8321991"></polygon>
        <polygon id="path-3" points="0.183474265 0.00954732143 89.8831985 0.00954732143 89.8831985 36.7941545 0.183474265 36.7941545"></polygon>
    </defs>
    <g id="UI-规范" stroke="none" stroke-width="1" fill="none" fill-rule="evenodd">
        <g id="icon" transform="translate(-39.000000, -1552.000000)">
            <g id="Group-45" transform="translate(39.000000, 1552.000000)">
                <path d="M416.823423,131.956252 L360.106977,131.956252 C360.580812,130.359738 360.839418,128.674051 360.839418,126.929577 C360.839418,117.116991 352.79019,109.089172 342.952244,109.089172 L331.836171,109.089172 C331.867958,109.052843 331.897759,109.015523 331.928885,108.979523 L323.017417,108.979523 C318.490326,108.979523 314.820177,105.318835 314.820177,100.803084 C314.820177,96.2876632 318.490326,92.6269753 323.017417,92.6269753 L372.015093,92.6269753 C381.532845,91.924826 389.042676,83.7143692 388.559239,73.9486815 C388.086729,64.4032824 379.98717,57 370.405513,57 L209.123604,57 C199.28599,57 191.237093,65.028149 191.237093,74.8407347 C191.237093,76.4382399 191.453977,77.987526 191.85364,79.4634927 L157.160073,79.4634927 C147.186368,79.4634927 138.848402,87.6036025 138.985155,97.5506072 C139.118597,107.250572 147.115177,115.144962 156.870342,115.144962 C156.870342,115.144962 156.942858,115.225217 157.068022,115.367563 L184.534204,115.367563 C192.792038,115.367563 199.722739,122.107007 199.609826,130.342894 C199.499563,138.375006 192.878461,144.911666 184.800756,144.911666 L93.6824612,144.911666 C84.6835772,146.027971 77.7015531,153.874473 78.0098271,163.205198 C78.329028,172.871805 86.481566,180.451451 96.1777915,180.451451 L131.286916,180.451451 C134.026614,180.451451 136.190491,182.692978 136.182213,185.425614 L136.182213,185.478126 C136.182213,195.290382 144.23111,203.318531 154.069056,203.318531 L174.994599,203.318531 C174.994599,203.318531 166.99835,211.212921 166.864577,220.912555 C166.727824,230.85989 175.06579,239 185.039495,239 L346.038626,239 C355.748759,239 363.899972,231.394924 364.198644,221.714115 C364.470825,212.896626 358.233824,205.407804 349.942878,203.689421 L312.466236,203.689421 C302.677296,203.689421 294.493964,195.700244 294.628068,185.937198 C294.758861,176.41723 302.60743,168.669148 312.182134,168.669148 L379.706379,168.669148 C399.692862,167.185255 417.113155,167.637391 417.113155,167.637391 C426.86832,167.637391 434.864568,159.743331 434.998341,150.043367 C435.135094,140.096032 426.797129,131.956252 416.823423,131.956252" id="Fill-1" fill="#DFE4E8"></path>
                <path d="M413.375115,30.1248466 L410.125038,30.1248466 L410.125038,33.3748466 C410.125038,34.2734825 409.398504,35 408.499847,35 C407.60303,35 406.874655,34.2734825 406.874655,33.3748466 L406.874655,30.1248466 L403.624885,30.1248466 C402.727762,30.1248466 402,29.3986359 402,28.5 C402,27.6028981 402.727762,26.8748466 403.624885,26.8748466 L406.874655,26.8748466 L406.874655,23.6248466 C406.874655,22.7280515 407.60303,22 408.499847,22 C409.398504,22 410.125038,22.7280515 410.125038,23.6248466 L410.125038,26.8748466 L413.375115,26.8748466 C414.273772,26.8748466 415,27.6028981 415,28.5 C415,29.3986359 414.273772,30.1248466 413.375115,30.1248466" id="Fill-3" fill="#DFE4E8"></path>
                <path d="M168.375115,265.125038 L165.125038,265.125038 L165.125038,268.375115 C165.125038,269.273465 164.398504,270 163.499847,270 C162.60303,270 161.874655,269.273465 161.874655,268.375115 L161.874655,265.125038 L158.624885,265.125038 C157.727762,265.125038 157,264.398811 157,263.500153 C157,262.602724 157.727762,261.874962 158.624885,261.874962 L161.874655,261.874962 L161.874655,258.624885 C161.874655,257.728069 162.60303,257 163.499847,257 C164.398504,257 165.125038,257.728069 165.125038,258.624885 L165.125038,261.874962 L168.375115,261.874962 C169.273772,261.874962 170,262.602724 170,263.500153 C170,264.398811 169.273772,265.125038 168.375115,265.125038" id="Fill-5" fill="#DFE4E8"></path>
                <path d="M102.375115,83.1250384 L99.1250384,83.1250384 L99.1250384,86.3751151 C99.1250384,87.2734653 98.3985037,88 97.4998466,88 C96.6030304,88 95.8746548,87.2734653 95.8746548,86.3751151 L95.8746548,83.1250384 L92.6248849,83.1250384 C91.7277619,83.1250384 91,82.3985037 91,81.4998466 C91,80.6027236 91.7277619,79.8746548 92.6248849,79.8746548 L95.8746548,79.8746548 L95.8746548,76.6245781 C95.8746548,75.7277619 96.6030304,75 97.4998466,75 C98.3985037,75 99.1250384,75.7277619 99.1250384,76.6245781 L99.1250384,79.8746548 L102.375115,79.8746548 C103.273772,79.8746548 104,80.6027236 104,81.4998466 C104,82.3985037 103.273772,83.1250384 102.375115,83.1250384" id="Fill-7" fill="#DFE4E8"></path>
                <path d="M237,6.49983877 C237,10.0897929 234.090115,13 230.500161,13 C226.910207,13 224,10.0897929 224,6.49983877 C224,2.90988466 226.910207,0 230.500161,0 C234.090115,0 237,2.90988466 237,6.49983877" id="Fill-9" fill="#DFE4E8"></path>
                <path d="M319,292.500161 C319,296.090115 316.089865,299 312.5,299 C308.910135,299 306,296.090115 306,292.500161 C306,288.910207 308.910135,286 312.5,286 C316.089865,286 319,288.910207 319,292.500161" id="Fill-11" fill="#DFE4E8"></path>
                <path d="M22,124.500161 C22,128.090115 19.0897929,131 15.4998388,131 C11.9098847,131 9,128.090115 9,124.500161 C9,120.910207 11.9098847,118 15.4998388,118 C19.0897929,118 22,120.910207 22,124.500161" id="Fill-13" fill="#DFE4E8"></path>
                <path d="M472,203.500161 C472,207.090115 469.090115,210 465.500161,210 C461.910207,210 459,207.090115 459,203.500161 C459,199.910207 461.910207,197 465.500161,197 C469.090115,197 472,199.910207 472,203.500161" id="Fill-15" fill="#DFE4E8"></path>
                <path d="M139.360281,40 C138.044591,40 136.822667,39.2976736 136.171921,38.1669085 C135.524146,37.0416864 135.538013,35.6526843 136.207248,34.5427868 C137.855079,31.8097784 138.630296,28.6763723 138.449698,25.4806893 C137.987143,17.3051403 131.1307,10.6822739 122.83971,10.4028432 C122.649867,10.3966481 122.462006,10.3930615 122.273484,10.3930615 C113.772842,10.3930615 106.684296,16.9389785 106.113778,25.3065749 L106.073169,27.7184173 C106.024965,30.5287012 103.671251,32.8205546 100.825928,32.82838 L98.4804673,32.8345751 C97.0601168,32.8345751 95.7384843,32.2939728 94.7450313,31.3118897 C93.5283899,30.1025449 91.8468824,29.4116304 90.1270763,29.4116304 C86.489698,29.4152171 83.5459869,32.3112539 83.5241963,35.8740769 L83.5245265,35.9158121 C83.5284884,37.0146236 83.1012607,38.0456154 82.3207613,38.81837 C81.5521476,39.5803649 80.5289802,40 79.4397807,40 L77.0870569,40 C74.8488988,40 73.0158477,38.2112522 73.0003302,36.0123249 L73,35.9040741 C73,26.5931952 80.6706191,19.0179168 90.0990127,19.0179168 C92.2404337,19.0179168 94.3419054,19.409185 96.3057001,20.1633545 C99.1675313,8.47454311 109.825113,0 122.273484,0 C122.568648,0 122.867113,0.00456479564 123.163927,0.0140204438 C137.017792,0.461696474 148.354514,11.5212181 148.972904,25.192129 C149.101007,28.032084 148.774478,30.8430199 148.001902,33.5479874 C146.916995,37.3465495 143.363477,40 139.360281,40" id="Fill-17" fill="#DFE4E8"></path>
                <path d="M375.922824,276 C374.529998,276 373.196741,275.407839 372.264398,274.374728 C371.332389,273.341951 370.881277,271.957683 371.026851,270.576085 C372.548518,256.127555 384.68839,245.132185 399.265874,245.001001 L399.527908,245 C413.971531,245 426.19607,255.774728 427.963038,270.063368 C428.134715,271.450641 427.703012,272.849596 426.77937,273.901066 C425.855393,274.952202 424.522136,275.562722 423.120944,275.57574 L422.969011,275.576074 C420.494252,275.576074 418.392966,273.712135 418.081739,271.240347 C416.910119,261.939679 408.93333,254.925541 399.526904,254.925541 L399.355561,254.926542 C389.862125,255.011995 381.939885,262.169 380.92756,271.574814 C380.658499,274.074642 378.572272,275.976634 376.074422,275.998999 L375.922824,276 Z" id="Fill-19" fill="#DFE4E8"></path>
                <path d="M89.0159738,227 C79.6361624,227 72.0322844,234.512609 72.0322844,243.780168 C68.5828041,253.916883 62.0684661,251.163002 54.2483641,249.681577 C46.4282621,248.200152 43.0468149,251.700069 43.0468149,251.700069 L43,255 L76.3901078,255 L78.9164261,255 L101.642177,255 C104.350366,252.0275 106,248.094669 106,243.780168 C106,234.512609 98.396122,227 89.0159738,227" id="Fill-21" fill="#E6EAED"></path>
                <path d="M467.174915,81 C476.108118,81 483.350162,88.2441697 483.350162,97.1804059 C486.635209,106.955203 492.839449,104.299705 500.286995,102.871328 C507.734872,101.442952 510.955513,104.817786 510.955513,104.817786 L511,108 L479.199947,108 L476.794011,108 L455.149883,108 C452.57098,105.133284 451,101.340996 451,97.1804059 C451,88.2441697 458.241711,81 467.174915,81" id="Fill-23" fill="#E6EAED"></path>
                <g id="Group-27" transform="translate(0.000000, 217.000000)">
                    <mask id="mask-2" fill="white">
                        <use xlink:href="#path-1"></use>
                    </mask>
                    <g id="Clip-26"></g>
                    <path d="M100.457009,38.8321991 C99.0746912,38.8321991 97.8277973,38.1106991 97.1206185,36.9020353 C96.4141003,35.6947164 96.3853639,34.2359147 97.042667,33.0000181 C98.3800639,30.4888888 99.0033458,27.6425612 98.8454609,24.7679922 C98.4111124,16.848975 91.9672306,10.433475 84.1750518,10.1628284 C83.9966882,10.1567767 83.8203064,10.1534147 83.6432639,10.1534147 C75.6542245,10.1534147 68.9920124,16.4946129 68.4556003,24.5992164 L68.4413973,25.4572164 C68.3832639,28.9937767 65.5086367,31.8797767 62.0328579,31.8898629 L61.2820791,31.891544 C59.9476548,31.891544 58.7057155,31.3680698 57.7712882,30.4172767 C56.6274488,29.2449233 55.0472791,28.5758716 53.4311064,28.5758716 C50.0022306,28.5792336 47.2293367,31.4013543 47.2257033,34.866975 C47.2273548,35.9361129 46.8243852,36.9279233 46.0921033,37.6746388 C45.3598215,38.4210181 44.3857579,38.8321991 43.3489367,38.8321991 L4.93898818,38.8321991 C2.2156397,38.8321991 -3.3030303e-05,36.5769233 -3.3030303e-05,33.8048974 C-3.3030303e-05,31.0328716 2.2156397,28.7779319 4.93898818,28.7779319 L38.4938124,28.7779319 C40.9155942,22.6566129 46.8316518,18.508156 53.4046821,18.508156 C55.4175488,18.508156 57.3927609,18.8870612 59.2378336,19.6176388 C61.9278215,8.29519914 71.9439306,0.0860353448 83.6435942,0.0860353448 C83.9207185,0.0860353448 84.2004852,0.0907422414 84.4799215,0.0998198276 C97.4998064,0.533526724 108.154061,11.2464233 108.735064,24.4889405 C108.889646,28.0016302 108.352573,31.4339664 107.1397,34.6901302 C106.216503,37.167975 103.845258,38.8321991 101.238176,38.8321991 L100.457009,38.8321991 Z" id="Fill-25" fill="#DFE4E8" mask="url(#mask-2)"></path>
                </g>
                <g id="Group-30" transform="translate(427.000000, 70.000000)">
                    <mask id="mask-4" fill="white">
                        <use xlink:href="#path-3"></use>
                    </mask>
                    <g id="Clip-29"></g>
                    <path d="M84.0257537,36.7941545 C83.034761,36.7941545 82.1036581,36.407967 81.4045037,35.7072795 C80.6950919,34.9963509 80.306636,34.0478955 80.3102757,33.0376634 C80.3069669,29.739708 77.6231801,27.0605116 74.3275919,27.0568777 C72.7396875,27.0568777 71.2106801,27.6924848 70.1081801,28.8001723 C69.1985846,29.7079937 67.9971507,30.2048509 66.7189522,30.2048509 L65.7789154,30.202208 C62.5253493,30.1936187 59.8339522,27.5438241 59.7796875,24.2954223 L59.7628125,23.2818866 C59.2433272,15.5878687 52.7954228,9.56777054 45.0630331,9.56777054 C44.8919669,9.56777054 44.7205699,9.57074375 44.5481801,9.57635982 C37.0063787,9.83370804 30.7699081,15.9241723 30.3490257,23.4421098 C30.2044301,26.0288063 30.7424449,28.6062527 31.9048346,30.8966188 C32.5467463,32.162217 32.4848713,33.6405652 31.7397243,34.8509938 C30.9915993,36.0680295 29.6912316,36.7941545 28.2621507,36.7941545 L4.9640625,36.7941545 C2.32792279,36.7941545 0.183474265,34.6534402 0.183474265,32.0214848 C0.183474265,29.3895295 2.32792279,27.2484848 4.9640625,27.2484848 L20.934761,27.2484848 C20.8136581,26.2646812 20.7524449,25.2729491 20.7524449,24.2818777 C20.7524449,10.8981187 31.6579963,0.00954732143 45.0630331,0.00954732143 C56.386489,0.00954732143 66.081011,7.80333304 68.6843934,18.5521634 C70.4701654,17.8587438 72.3820037,17.4989848 74.3299081,17.4989848 C82.9060478,17.4989848 89.883364,24.4655563 89.883364,33.028083 L89.8827022,33.1271902 C89.869136,35.1489759 88.2018199,36.7941545 86.1659007,36.7941545 L84.0257537,36.7941545 Z" id="Fill-28" fill="#DFE4E8" mask="url(#mask-4)"></path>
                </g>
                <path d="M262.639587,135 C262.639587,135 257.861596,157.884116 288,163.70097 L286.892494,171 L257.770358,170.007413 C257.770358,170.007413 246.634033,150.105636 262.639587,135" id="Fill-31" fill="#E9EEF2"></path>
                <path d="M229.984406,94 C229.984406,94 217.266609,117.870021 242,119.249303 C229.341362,123.533715 220.33875,118.606414 220.33875,118.606414 L218,106.711524 C218,106.711524 228.030839,97.0452266 229.984406,94" id="Fill-33" fill="#E9EEF2"></path>
                <path d="M309.447205,82 C309.447205,82 323.37024,109.110748 302,111.558422 C309.770996,116.335312 321.164573,107.710224 321.164573,107.710224 C321.164573,107.710224 329.846071,85.9303863 309.447205,82" id="Fill-35" fill="#E9EEF2"></path>
                <path d="M316.276738,179 C316.276738,179 305.342297,202.877509 333,207.528302 L325.603173,210.924528 L319.017102,215 L304.761164,201.901094 L299,189.712377 L316.276738,179 Z" id="Fill-37" fill="#E9EEF2"></path>
                <path d="M222.983443,169 C222.983443,169 211.045616,196.868261 233,208 C218.030579,206.826553 213.563609,203.365846 213.563609,203.365846 L209,192.930494 L212.378949,181.060928 L222.983443,169 Z" id="Fill-39" fill="#E9EEF2"></path>
                <polygon id="Fill-41" fill="#C9CFD3" points="275.013 120 275 121 275.013 121"></polygon>
                <path d="M319.031074,209.202494 C311.975284,209.202494 306.23461,203.478649 306.23461,196.443213 C306.23461,189.407777 311.975284,183.683931 319.031074,183.683931 C326.087195,183.683931 331.827538,189.407777 331.827538,196.443213 C331.827538,203.597855 326.207081,209.202494 319.031074,209.202494 M274.152296,166.539728 L274.067748,166.541045 C264.58913,166.541045 256.877433,158.852283 256.877433,149.401122 C256.877433,139.949632 264.58913,132.26054 274.067748,132.26054 L274.131159,132.26054 L274.161544,132.262187 C283.590952,132.312569 291.258394,139.996392 291.258394,149.401122 C291.258394,158.97083 283.745846,166.495273 274.152296,166.539728 M226.806766,201.990555 C219.750645,201.990555 214.010301,196.266709 214.010301,189.231273 C214.010301,182.196166 219.750645,176.472651 226.806766,176.472651 C233.862226,176.472651 239.6029,182.196166 239.6029,189.231273 C239.6029,196.385915 233.981782,201.990555 226.806766,201.990555 M231.704932,119.448901 C226.005872,119.448901 221.369606,114.825897 221.369606,109.143872 C221.369606,103.461518 226.005872,98.8388433 231.704932,98.8388433 C237.403992,98.8388433 242.040258,103.461518 242.040258,109.143872 C242.040258,114.922051 237.50043,119.448901 231.704932,119.448901 M306.424843,87.3131096 C313.199577,87.3131096 318.711047,92.8087517 318.711047,99.5639559 C318.711047,106.433756 313.31418,111.815461 306.424843,111.815461 C299.649448,111.815461 294.137978,106.31916 294.137978,99.5639559 C294.137978,92.8087517 299.649448,87.3131096 306.424843,87.3131096 M319.031074,174.711239 C318.636407,174.711239 318.198475,174.727704 317.635703,174.764256 C317.481469,174.773477 317.326574,174.784673 317.165405,174.799162 C316.797819,174.830774 316.426271,174.872924 316.05175,174.924953 C315.895864,174.946687 315.739649,174.969409 315.587396,174.993447 C315.199335,175.056343 314.81986,175.12813 314.4351,175.211771 C314.292095,175.243384 314.150412,175.276314 314.013351,175.308914 C312.882192,175.579267 311.751364,175.951044 310.65257,176.414365 L309.22153,177.017638 L297.966415,165.598596 C300.36216,162.163038 301.970883,158.233533 302.673358,154.026431 C302.931956,152.471819 303.063401,150.88757 303.064722,149.317151 C302.914452,140.780119 299.015338,133.092016 292.973462,127.842688 L299.050016,118.629609 L300.681857,119.108078 C302.61358,119.67414 304.601778,119.961287 306.590966,119.961287 C316.725491,119.961287 325.280356,112.777338 326.933335,102.880309 C327.118284,101.766296 327.212409,100.628574 327.21373,99.4987551 C327.011278,88.1943091 317.689536,79 306.424843,79 C306.053624,79 305.638481,79.0158063 305.104442,79.0507118 C304.956813,79.0592735 304.808854,79.0701403 304.659904,79.0829829 C304.339877,79.1109732 303.994419,79.1504889 303.602064,79.2035057 C303.455757,79.2229343 303.309119,79.2453265 303.163802,79.268048 C302.808106,79.3250164 302.453731,79.392193 302.081192,79.4725416 L301.676947,79.5654034 C300.141213,79.9332285 298.659642,80.4729467 297.274179,81.1703983 L295.871872,81.8764117 L294.964963,82.4810014 C292.683819,84.0013669 290.753418,85.9303903 289.228913,88.213079 C289.01391,88.5348025 288.801219,88.8776009 288.567391,89.2760506 L288.431982,89.5111689 C288.197494,89.9257541 287.994711,90.3110319 287.813395,90.6880773 L287.741728,90.8435056 C287.567347,91.2136357 287.407169,91.5854124 287.223541,92.0441235 L287.146589,92.2393967 C286.978484,92.6773621 286.831846,93.1001798 286.709648,93.4963244 L286.670347,93.6313363 C286.548148,94.0360427 286.43817,94.4509572 286.32621,94.9330484 L286.288229,95.0967092 C286.084456,96.0177536 285.946405,96.9539458 285.866811,97.9503993 L285.85327,98.1269026 C285.824867,98.5474153 285.808354,98.935986 285.8034,99.3143486 L285.788538,100.34472 L285.897856,101.485076 C286.143573,104.04635 286.865533,106.509494 288.044911,108.806013 L288.197494,109.103039 L288.308793,109.078671 L289.172107,110.446243 C289.403953,110.813739 289.654295,111.182881 289.915204,111.543461 L290.849856,112.834965 L284.373681,122.649341 C281.205114,121.42205 277.77861,120.738758 274.211083,120.720976 L274.122572,120.719 L274.122572,120.720318 L274.067748,120.719 C273.538663,120.719 272.967634,120.740405 272.236757,120.786836 L272.120173,120.795068 C271.950416,120.807252 271.781651,120.819436 271.613546,120.834254 C271.147211,120.874758 270.655446,120.930409 270.145186,121.00055 C269.938439,121.02854 269.732024,121.057518 269.522305,121.091765 C268.997844,121.177053 268.485932,121.273537 268.004075,121.378912 C267.819787,121.419416 267.636489,121.462224 267.446257,121.507009 C265.058107,122.07834 262.767386,122.948672 260.636844,124.094627 L258.903611,125.026538 L258.084553,125.572513 C257.866578,125.718392 257.651245,125.866905 257.437563,126.017394 L255.849647,127.136016 L247.14418,118.45607 L247.87803,116.976866 C248.666374,115.38669 249.210321,113.718799 249.493689,112.021601 C249.656509,111.043259 249.736434,110.080723 249.737424,109.080318 C249.560732,99.2777966 241.475505,91.305839 231.704932,91.305839 C231.376318,91.305839 231.010384,91.3196695 230.568159,91.347989 L230.479317,91.3539164 C230.379247,91.3608316 230.280828,91.3670883 230.179436,91.3766379 C229.893757,91.4016645 229.594536,91.4349235 229.264931,91.4797079 L228.86531,91.5386522 C228.540659,91.5919983 228.233842,91.6502839 227.941227,91.7144969 C227.827286,91.7388649 227.713344,91.7648794 227.586522,91.795504 C226.392613,92.0810048 225.235032,92.486699 224.146478,93.0017199 L222.774885,93.6504355 L221.763613,94.3245071 C219.783671,95.6443305 218.108895,97.3184778 216.788164,99.2965665 C216.598261,99.5820673 216.414634,99.8767883 216.232327,100.188633 L216.090313,100.43363 C215.890172,100.787954 215.720085,101.111982 215.569815,101.42251 L215.496826,101.582548 C215.35217,101.888136 215.210816,102.215458 215.057573,102.598101 L214.985245,102.78152 C214.839268,103.16087 214.711455,103.529024 214.604119,103.876433 L214.56878,103.997285 C214.461774,104.352597 214.364346,104.720751 214.27022,105.127433 L214.233891,105.28352 C214.061162,106.066918 213.939955,106.889832 213.873571,107.721966 L213.8597,107.901434 C213.842196,108.152029 213.829646,108.407563 213.82172,108.660134 L213.791005,109.693469 L213.898011,110.810116 C214.111693,113.032544 214.738867,115.169683 215.761038,117.160943 L215.966133,117.56071 L216.04936,117.542599 L216.916307,118.862422 C220.196503,123.857533 225.778649,126.839649 231.847937,126.839649 C234.460997,126.839649 236.987858,126.292357 239.358833,125.211603 L240.815964,124.54774 L249.959693,133.666311 L248.972199,135.37701 C248.640943,135.963818 248.360218,136.497938 248.113509,137.009995 L248.008485,137.238527 C247.773996,137.737742 247.545123,138.265935 247.331111,138.801043 L247.180179,139.18204 C246.940076,139.809351 246.738284,140.388914 246.564564,140.953988 L246.515025,141.125552 C246.342956,141.696554 246.189713,142.275788 246.034819,142.942944 L245.981646,143.171476 C245.697287,144.456065 245.505073,145.760411 245.394434,147.151034 L245.375279,147.398336 C245.328051,148.093153 245.304602,148.733636 245.303281,149.356338 L245.310877,149.687611 L245.378581,151.471085 L245.437038,152.080285 C245.779854,155.650855 246.787163,159.085755 248.430564,162.288171 L248.637971,162.69156 L248.757197,162.666533 L249.863256,164.320923 L245.914602,167.369886 L240.355574,172.159844 L238.89382,171.183149 C235.288312,168.77368 231.108142,167.499959 226.806766,167.499959 C226.403511,167.499959 225.958974,167.516753 225.410073,167.552646 C225.252867,167.562854 225.09467,167.575038 224.948692,167.586893 C224.584079,167.618506 224.209889,167.660985 223.829092,167.714002 C223.674859,167.735077 223.521285,167.75681 223.361106,167.783483 C222.95521,167.849014 222.574084,167.9208 222.228626,167.997197 L222.204187,168.002466 C222.066466,168.031444 221.929736,168.063386 221.788713,168.096974 C220.171733,168.48324 218.607926,169.052924 217.139897,169.79055 L215.660307,170.534762 L214.695272,171.178209 C212.283343,172.785838 210.244285,174.824188 208.635562,177.233986 C208.404046,177.581394 208.183428,177.935718 207.947289,178.33779 L207.786119,178.616046 C207.537099,179.058951 207.327711,179.457401 207.146725,179.833129 L207.062177,180.016218 C206.878219,180.406765 206.709124,180.798299 206.53078,181.245485 L206.432361,181.493117 C206.254018,181.959402 206.101765,182.398355 205.967347,182.833357 L205.930027,182.9631 C205.799573,183.395138 205.682328,183.839689 205.561781,184.357674 L205.526113,184.511126 C205.31111,185.4842 205.165133,186.473079 205.081245,187.519257 L205.067044,187.715189 C205.036659,188.158423 205.019155,188.565434 205.014201,188.959274 L205,190.079872 L205.113611,191.262379 C205.3732,193.967885 206.136774,196.57098 207.382535,198.99856 L207.585318,199.393716 L207.711149,199.365397 L208.579086,200.740871 C212.550198,207.032425 219.429627,210.788719 226.981146,210.788719 C237.691654,210.788719 246.73267,203.196441 248.478783,192.737301 C248.67463,191.560393 248.77437,190.357141 248.775361,189.161462 C248.728794,186.53367 248.211928,183.957578 247.239627,181.502996 L246.638544,179.984606 L256.283615,171.674789 L257.755278,172.701209 C262.58574,176.070579 268.306928,177.851418 274.300916,177.851089 L274.433682,177.849772 C275.609427,177.844174 276.795741,177.768106 277.960256,177.623215 L277.960587,177.623215 C278.134306,177.601482 278.307696,177.578101 278.477452,177.554392 L278.559358,177.542208 C278.728784,177.517511 278.89755,177.491496 279.057398,177.465482 L279.089104,177.460213 C279.407149,177.407855 279.716938,177.352204 280.008893,177.294247 L280.008893,177.294577 L280.245693,177.246499 C284.099891,176.451246 287.699123,174.900256 290.869671,172.691001 L301.473503,183.457375 L300.51045,185.006719 C300.464543,185.080481 300.417975,185.153914 300.371077,185.227018 C300.309648,185.323503 300.247888,185.418999 300.198018,185.504616 L300.016372,185.819095 C299.771315,186.252121 299.557634,186.658144 299.364098,187.059228 L299.286156,187.229475 C299.103849,187.61607 298.934423,188.008263 298.740887,188.493647 L298.661624,188.69386 C298.48295,189.158499 298.327065,189.605684 298.198261,190.024221 L298.154996,190.172405 C298.024542,190.606089 297.908618,191.044384 297.791374,191.546233 L297.750752,191.722736 C297.535088,192.698774 297.389441,193.683043 297.306875,194.727574 L297.291352,194.926799 C297.260968,195.371021 297.243464,195.779679 297.23851,196.176153 L297.224309,197.283909 L297.33792,198.473001 C297.598169,201.180813 298.361743,203.783908 299.607174,206.209841 L299.809626,206.604339 L299.936448,206.577007 L300.798441,207.944249 C304.768231,214.241072 311.649642,218 319.205785,218 C329.915962,218 338.956978,210.407393 340.703091,199.947924 C340.898939,198.772991 340.998679,197.570727 341,196.373402 C340.786979,184.426826 330.935822,174.711239 319.031074,174.711239" id="Fill-43" fill="#D2D9DD"></path>
            </g>
        </g>
    </g>
</svg>